<svg id="Layer_1" data-name="Layer 1" xmlns="http://www.w3.org/2000/svg" viewBox="0 0 391.08 391.08"><defs><style>.cls-1{fill:#fff;stroke:#666766;stroke-miterlimit:10;stroke-width:3px;}.cls-2{fill:#676767;}.cls-3{fill:#6c6c6c;stroke:#fff;stroke-linejoin:round;stroke-width:10px;}</style></defs><title>Icon_gear_settings_remix-wizardplusplus</title><rect class="cls-1" x="1.5" y="1.5" width="388.08" height="388.08"/><g id="layer1"><path id="path4562" class="cls-2" d="M199.14,37.47l-3.66,25.46a137.27,137.27,0,0,0-57,14.19L123.16,56.6,84,85.94l15.35,20.52a137.09,137.09,0,0,0-30,50.28l-25.62-3.69-7.1,49.32,25.62,3.69a137.09,137.09,0,0,0,14.31,56.16L55.89,277.55,85.64,317.3l20.52-15.35A137.26,137.26,0,0,0,156,331.36L152.34,357l49.32,7.1,3.69-25.62a137.08,137.08,0,0,0,56.16-14.31l15.33,20.68,39.75-29.75-15.35-20.52a137.26,137.26,0,0,0,29.41-49.87l25.62,3.69,7-48.52-25.46-3.66a137.27,137.27,0,0,0-14.19-57l20.52-15.35-29.34-39.2L294.26,100a137.09,137.09,0,0,0-50.28-30l3.69-25.62-48.52-7h0Z" transform="translate(-4.8 -5.17)"/><path id="path4600-2" class="cls-3" d="M291.9,213.94a92.84,92.84,0,1,1-78.67-105.12h0A92.84,92.84,0,0,1,291.9,213.94Z" transform="translate(-4.8 -5.17)"/></g></svg>